<svg width="40" height="40" viewBox="0 0 40 40" fill="none" xmlns="http://www.w3.org/2000/svg">
<mask id="mask0_40_1028" style="mask-type:luminance" maskUnits="userSpaceOnUse" x="5" y="3" width="29" height="36">
<path fill-rule="evenodd" clip-rule="evenodd" d="M5 3.33325H33.398V38.0778H5V3.33325Z" fill="white"/>
</mask>
<g mask="url(#mask0_40_1028)">
<path fill-rule="evenodd" clip-rule="evenodd" d="M13.903 5.83325C9.65469 5.83325 7.49969 7.46992 7.49969 10.7016V35.2416C7.49969 35.3983 7.58969 35.4833 7.66469 35.5266C7.73969 35.5733 7.85803 35.6066 7.99469 35.5299L18.6314 29.5633C19.0114 29.3516 19.4764 29.3499 19.858 29.5649L30.403 35.5216C30.5414 35.6016 30.6597 35.5649 30.7347 35.5199C30.8097 35.4749 30.898 35.3899 30.898 35.2333V11.0066C30.898 9.72825 30.898 5.83325 24.5014 5.83325H13.903ZM7.83136 38.0783C7.33969 38.0783 6.84803 37.9466 6.40136 37.6833C5.52303 37.1716 4.99969 36.2566 4.99969 35.2416V10.7016C4.99969 6.01825 8.24469 3.33325 13.903 3.33325H24.5014C30.1547 3.33325 33.398 6.13159 33.398 11.0066V35.2333C33.398 36.2499 32.8747 37.1649 31.9947 37.6766C31.118 38.1899 30.0614 38.1999 29.1747 37.6999L19.2414 32.0883L9.21636 37.7116C8.78303 37.9549 8.30803 38.0783 7.83136 38.0783Z" fill="#111111"/>
</g>
<path fill-rule="evenodd" clip-rule="evenodd" d="M25.2327 17.0474H13.036C12.346 17.0474 11.786 16.4874 11.786 15.7974C11.786 15.1074 12.346 14.5474 13.036 14.5474H25.2327C25.9227 14.5474 26.4827 15.1074 26.4827 15.7974C26.4827 16.4874 25.9227 17.0474 25.2327 17.0474Z" fill="#111111"/>
</svg>
