<svg width="20" height="20" viewBox="0 0 20 20" fill="none" xmlns="http://www.w3.org/2000/svg">
<path fill-rule="evenodd" clip-rule="evenodd" d="M5.27308 6.95612L5.77558 12.9328C5.81224 13.3928 6.18808 13.7378 6.64724 13.7378H6.65058H15.7431H15.7447C16.1789 13.7378 16.5497 13.4145 16.6114 12.9853L17.4031 7.51945C17.4214 7.38945 17.3889 7.25945 17.3097 7.15445C17.2314 7.04862 17.1164 6.98028 16.9864 6.96195C16.8122 6.96862 9.58474 6.95862 5.27308 6.95612ZM6.64558 14.9878C5.54808 14.9878 4.61891 14.1311 4.52974 13.0353L3.76641 3.95695L2.51058 3.74028C2.16974 3.68028 1.94224 3.35778 2.00058 3.01695C2.06058 2.67612 2.38974 2.45445 2.72308 2.50778L4.45641 2.80778C4.73558 2.85695 4.94808 3.08862 4.97224 3.37195L5.16808 5.70612C17.0647 5.71112 17.1031 5.71695 17.1606 5.72362C17.6247 5.79112 18.0331 6.03362 18.3114 6.40695C18.5897 6.77945 18.7064 7.23862 18.6397 7.69862L17.8489 13.1636C17.6997 14.2036 16.7964 14.9878 15.7464 14.9878H15.7422H6.65224H6.64558Z" fill="white"/>
<path fill-rule="evenodd" clip-rule="evenodd" d="M13.5729 10.7383H9.59622C9.25039 10.7383 8.97122 10.4583 8.97122 10.1133C8.97122 9.76828 9.25039 9.48828 9.59622 9.48828H13.5729C13.9179 9.48828 14.1979 9.76828 14.1979 10.1133C14.1979 10.4583 13.9179 10.7383 13.5729 10.7383Z" fill="white"/>
<path fill-rule="evenodd" clip-rule="evenodd" d="M10.9596 12.1017L10.9596 8.125C10.9596 7.77917 11.2396 7.5 11.5846 7.5C11.9296 7.5 12.2096 7.77917 12.2096 8.125L12.2096 12.1017C12.2096 12.4467 11.9296 12.7267 11.5846 12.7267C11.2396 12.7267 10.9596 12.4467 10.9596 12.1017Z" fill="white"/>
<path fill-rule="evenodd" clip-rule="evenodd" d="M6.28708 17.2516C6.53792 17.2516 6.74042 17.4541 6.74042 17.7049C6.74042 17.9558 6.53792 18.1591 6.28708 18.1591C6.03542 18.1591 5.83292 17.9558 5.83292 17.7049C5.83292 17.4541 6.03542 17.2516 6.28708 17.2516Z" fill="white"/>
<mask id="mask0_51_464" style="mask-type:luminance" maskUnits="userSpaceOnUse" x="5" y="17" width="2" height="2">
<path fill-rule="evenodd" clip-rule="evenodd" d="M5.83249 17.7046C5.83249 17.9562 6.03499 18.1596 6.28749 18.1596C6.53832 18.1596 6.74082 17.9562 6.74082 17.7046C6.74082 17.4537 6.53832 17.2512 6.28749 17.2512C6.03499 17.2512 5.83249 17.4537 5.83249 17.7046Z" fill="white"/>
</mask>
<g mask="url(#mask0_51_464)">
<path fill-rule="evenodd" clip-rule="evenodd" d="M1.66666 22.3254H10.9075V13.0846H1.66666V22.3254Z" fill="white"/>
</g>
<path fill-rule="evenodd" clip-rule="evenodd" d="M6.28625 17.534C6.19208 17.534 6.11542 17.6106 6.11542 17.7048C6.11542 17.894 6.45792 17.894 6.45792 17.7048C6.45792 17.6106 6.38042 17.534 6.28625 17.534ZM6.28625 18.784C5.69125 18.784 5.20792 18.2998 5.20792 17.7048C5.20792 17.1098 5.69125 16.6265 6.28625 16.6265C6.88125 16.6265 7.36542 17.1098 7.36542 17.7048C7.36542 18.2998 6.88125 18.784 6.28625 18.784Z" fill="white"/>
<path fill-rule="evenodd" clip-rule="evenodd" d="M15.6873 17.2516C15.9382 17.2516 16.1415 17.4541 16.1415 17.7049C16.1415 17.9558 15.9382 18.1591 15.6873 18.1591C15.4357 18.1591 15.2332 17.9558 15.2332 17.7049C15.2332 17.4541 15.4357 17.2516 15.6873 17.2516Z" fill="white"/>
<mask id="mask1_51_464" style="mask-type:luminance" maskUnits="userSpaceOnUse" x="15" y="17" width="2" height="2">
<path fill-rule="evenodd" clip-rule="evenodd" d="M15.2333 17.7046C15.2333 17.9562 15.4358 18.1596 15.6875 18.1596C15.9375 18.1596 16.1417 17.9562 16.1417 17.7046C16.1417 17.4537 15.9375 17.2512 15.6875 17.2512C15.4358 17.2512 15.2333 17.4537 15.2333 17.7046Z" fill="white"/>
</mask>
<g mask="url(#mask1_51_464)">
<path fill-rule="evenodd" clip-rule="evenodd" d="M11.0667 22.3254H20.3083V13.0846H11.0667V22.3254Z" fill="white"/>
</g>
<path fill-rule="evenodd" clip-rule="evenodd" d="M15.6865 17.534C15.5932 17.534 15.5165 17.6106 15.5165 17.7048C15.5173 17.8956 15.859 17.894 15.8582 17.7048C15.8582 17.6106 15.7807 17.534 15.6865 17.534ZM15.6865 18.784C15.0915 18.784 14.6082 18.2998 14.6082 17.7048C14.6082 17.1098 15.0915 16.6265 15.6865 16.6265C16.2823 16.6265 16.7665 17.1098 16.7665 17.7048C16.7665 18.2998 16.2823 18.784 15.6865 18.784Z" fill="white"/>
</svg>
