<svg width="28" height="28" viewBox="0 0 28 28" fill="none" xmlns="http://www.w3.org/2000/svg">
<path fill-rule="evenodd" clip-rule="evenodd" d="M7.38235 9.73863L8.08585 18.106C8.13719 18.75 8.66335 19.233 9.30619 19.233H9.31085H22.0404H22.0427C22.6505 19.233 23.1697 18.7803 23.256 18.1795L24.3644 10.5273C24.39 10.3453 24.3445 10.1633 24.2337 10.0163C24.124 9.86813 23.963 9.77247 23.781 9.7468C23.5372 9.75613 13.4187 9.74213 7.38235 9.73863ZM9.30385 20.983C7.76735 20.983 6.46652 19.7836 6.34169 18.2495L5.27302 5.5398L3.51486 5.23647C3.03769 5.15247 2.71919 4.70097 2.80086 4.2238C2.88486 3.74663 3.34569 3.4363 3.81236 3.51097L6.23902 3.93097C6.62986 3.9998 6.92735 4.32413 6.96119 4.7208L7.23535 7.98863C23.8907 7.99563 23.9444 8.0038 24.0249 8.01313C24.6747 8.10763 25.2464 8.44713 25.636 8.9698C26.0257 9.4913 26.189 10.1341 26.0957 10.7781L24.9885 18.4291C24.7797 19.8851 23.515 20.983 22.045 20.983H22.0392H9.31319H9.30385Z" fill="#111111"/>
<path fill-rule="evenodd" clip-rule="evenodd" d="M20.1689 14.051H16.9349C16.4508 14.051 16.0599 13.659 16.0599 13.176C16.0599 12.693 16.4508 12.301 16.9349 12.301H20.1689C20.6519 12.301 21.0439 12.693 21.0439 13.176C21.0439 13.659 20.6519 14.051 20.1689 14.051Z" fill="#111111"/>
<path fill-rule="evenodd" clip-rule="evenodd" d="M8.80197 24.1522C9.15314 24.1522 9.43664 24.4357 9.43664 24.7869C9.43664 25.138 9.15314 25.4227 8.80197 25.4227C8.44964 25.4227 8.16614 25.138 8.16614 24.7869C8.16614 24.4357 8.44964 24.1522 8.80197 24.1522Z" fill="#111111"/>
<mask id="mask0_40_1656" style="mask-type:luminance" maskUnits="userSpaceOnUse" x="8" y="24" width="2" height="2">
<path fill-rule="evenodd" clip-rule="evenodd" d="M8.16553 24.7864C8.16553 25.1387 8.44903 25.4234 8.80253 25.4234C9.15369 25.4234 9.43719 25.1387 9.43719 24.7864C9.43719 24.4352 9.15369 24.1517 8.80253 24.1517C8.44903 24.1517 8.16553 24.4352 8.16553 24.7864Z" fill="white"/>
</mask>
<g mask="url(#mask0_40_1656)">
<path fill-rule="evenodd" clip-rule="evenodd" d="M2.33337 31.2556H15.2705V18.3184H2.33337V31.2556Z" fill="#111111"/>
</g>
<path fill-rule="evenodd" clip-rule="evenodd" d="M8.8008 24.5476C8.66897 24.5476 8.56164 24.6549 8.56164 24.7868C8.56164 25.0516 9.04114 25.0516 9.04114 24.7868C9.04114 24.6549 8.93264 24.5476 8.8008 24.5476ZM8.8008 26.2976C7.9678 26.2976 7.29114 25.6198 7.29114 24.7868C7.29114 23.9538 7.9678 23.2771 8.8008 23.2771C9.6338 23.2771 10.3116 23.9538 10.3116 24.7868C10.3116 25.6198 9.6338 26.2976 8.8008 26.2976Z" fill="#111111"/>
<path fill-rule="evenodd" clip-rule="evenodd" d="M21.9624 24.1522C22.3135 24.1522 22.5982 24.4357 22.5982 24.7869C22.5982 25.1381 22.3135 25.4227 21.9624 25.4227C21.61 25.4227 21.3265 25.1381 21.3265 24.7869C21.3265 24.4357 21.61 24.1522 21.9624 24.1522Z" fill="#111111"/>
<mask id="mask1_40_1656" style="mask-type:luminance" maskUnits="userSpaceOnUse" x="21" y="24" width="2" height="2">
<path fill-rule="evenodd" clip-rule="evenodd" d="M21.3267 24.7864C21.3267 25.1387 21.6102 25.4234 21.9625 25.4234C22.3125 25.4234 22.5983 25.1387 22.5983 24.7864C22.5983 24.4352 22.3125 24.1517 21.9625 24.1517C21.6102 24.1517 21.3267 24.4352 21.3267 24.7864Z" fill="white"/>
</mask>
<g mask="url(#mask1_40_1656)">
<path fill-rule="evenodd" clip-rule="evenodd" d="M15.4933 31.2556H28.4316V18.3184H15.4933V31.2556Z" fill="#111111"/>
</g>
<path fill-rule="evenodd" clip-rule="evenodd" d="M21.9611 24.5476C21.8304 24.5476 21.7231 24.6549 21.7231 24.7868C21.7243 25.0539 22.2026 25.0516 22.2014 24.7868C22.2014 24.6549 22.0929 24.5476 21.9611 24.5476ZM21.9611 26.2976C21.1281 26.2976 20.4514 25.6198 20.4514 24.7868C20.4514 23.9538 21.1281 23.2771 21.9611 23.2771C22.7952 23.2771 23.4731 23.9538 23.4731 24.7868C23.4731 25.6198 22.7952 26.2976 21.9611 26.2976Z" fill="#111111"/>
</svg>
