<svg width="20" height="20" viewBox="0 0 20 20" fill="none" xmlns="http://www.w3.org/2000/svg">
<mask id="mask0_51_456" style="mask-type:luminance" maskUnits="userSpaceOnUse" x="1" y="2" width="18" height="17">
<path fill-rule="evenodd" clip-rule="evenodd" d="M1.66666 2.49988H18.7271V18.7507H1.66666V2.49988Z" fill="white"/>
</mask>
<g mask="url(#mask0_51_456)">
<path fill-rule="evenodd" clip-rule="evenodd" d="M3.18641 10.1025C4.35474 13.7375 8.97057 16.6766 10.1972 17.4041C11.4281 16.6691 16.0772 13.6975 17.2081 10.1058C17.9506 7.78414 17.2614 4.84331 14.5231 3.96081C13.1964 3.53498 11.6489 3.79414 10.5806 4.62081C10.3572 4.79248 10.0472 4.79581 9.82224 4.62581C8.69057 3.77498 7.21224 3.52581 5.86474 3.96081C3.13057 4.84248 2.44391 7.78331 3.18641 10.1025ZM10.1981 18.7508C10.0947 18.7508 9.99224 18.7258 9.89891 18.675C9.63807 18.5325 3.49391 15.1458 1.99641 10.4841C1.99557 10.4841 1.99557 10.4833 1.99557 10.4833C1.05557 7.54831 2.10224 3.85998 5.48141 2.77081C7.06807 2.25748 8.79724 2.48331 10.1956 3.36581C11.5506 2.50914 13.3506 2.27248 14.9056 2.77081C18.2881 3.86164 19.3381 7.54914 18.3989 10.4833C16.9497 15.0916 10.7606 18.5291 10.4981 18.6733C10.4047 18.725 10.3014 18.7508 10.1981 18.7508Z" fill="white"/>
</g>
</svg>
