<svg width="28" height="28" viewBox="0 0 28 28" fill="none" xmlns="http://www.w3.org/2000/svg">
<mask id="mask0_40_1634" style="mask-type:luminance" maskUnits="userSpaceOnUse" x="4" y="16" width="20" height="10">
<path fill-rule="evenodd" clip-rule="evenodd" d="M4.66663 16.9121H23.1465V25.5151H4.66663V16.9121Z" fill="white"/>
</mask>
<g mask="url(#mask0_40_1634)">
<path fill-rule="evenodd" clip-rule="evenodd" d="M13.9077 18.6621C8.9365 18.6621 6.4165 19.5161 6.4165 21.202C6.4165 22.903 8.9365 23.7651 13.9077 23.7651C18.8777 23.7651 21.3965 22.9111 21.3965 21.2253C21.3965 19.5243 18.8777 18.6621 13.9077 18.6621ZM13.9077 25.5151C11.6222 25.5151 4.6665 25.5151 4.6665 21.202C4.6665 17.3566 9.941 16.9121 13.9077 16.9121C16.1932 16.9121 23.1465 16.9121 23.1465 21.2253C23.1465 25.0706 17.8732 25.5151 13.9077 25.5151Z" fill="#111111"/>
</g>
<mask id="mask1_40_1634" style="mask-type:luminance" maskUnits="userSpaceOnUse" x="7" y="2" width="14" height="13">
<path fill-rule="evenodd" clip-rule="evenodd" d="M7.71143 2.33345H20.1015V14.7218H7.71143V2.33345Z" fill="white"/>
</mask>
<g mask="url(#mask1_40_1634)">
<path fill-rule="evenodd" clip-rule="evenodd" d="M13.9076 3.99898C11.4098 3.99898 9.37746 6.03015 9.37746 8.52798C9.3693 11.0177 11.3865 13.0477 13.8738 13.057L13.9076 13.89V13.057C16.4043 13.057 18.4355 11.0247 18.4355 8.52798C18.4355 6.03015 16.4043 3.99898 13.9076 3.99898ZM13.9076 14.7218H13.8703C10.4613 14.7113 7.6998 11.9312 7.71146 8.52449C7.71146 5.11198 10.4905 2.33298 13.9076 2.33298C17.3236 2.33298 20.1015 5.11198 20.1015 8.52798C20.1015 11.944 17.3236 14.7218 13.9076 14.7218Z" fill="#111111"/>
</g>
</svg>
