<svg width="22" height="22" viewBox="0 0 22 22" fill="none" xmlns="http://www.w3.org/2000/svg">
<mask id="mask0_51_1176" style="mask-type:luminance" maskUnits="userSpaceOnUse" x="1" y="2" width="19" height="19">
<path fill-rule="evenodd" clip-rule="evenodd" d="M1.83337 2.75049H19.7075V20.6246H1.83337V2.75049Z" fill="white"/>
</mask>
<g mask="url(#mask0_51_1176)">
<path fill-rule="evenodd" clip-rule="evenodd" d="M9.90457 13.5832L13.2568 19.0218C13.4035 19.2601 13.6327 19.2574 13.7252 19.2446C13.8178 19.2317 14.0406 19.1749 14.1212 18.9045L18.3132 4.74656C18.3865 4.49631 18.2517 4.32581 18.1912 4.26531C18.1326 4.20481 17.9648 4.07556 17.7219 4.14431L3.55391 8.29314C3.28532 8.37197 3.22666 8.59747 3.21382 8.69006C3.20099 8.78447 3.19732 9.01822 3.43474 9.16764L8.93566 12.6079L13.7958 7.69639C14.0626 7.42689 14.498 7.42414 14.7684 7.69089C15.0388 7.95764 15.0407 8.39397 14.7739 8.66347L9.90457 13.5832ZM13.6537 20.6251C13.0157 20.6251 12.4309 20.3006 12.0862 19.7432L8.53232 13.9765L2.70599 10.3327C2.07807 9.93947 1.74991 9.23914 1.85166 8.50306C1.95249 7.76697 2.45757 7.18214 3.16707 6.97405L17.3351 2.82522C17.9868 2.63456 18.6853 2.81514 19.1657 3.29364C19.646 3.77672 19.8247 4.48256 19.6304 5.13706L15.4385 19.2941C15.2286 20.0063 14.6419 20.5096 13.9077 20.6076C13.8215 20.6186 13.7381 20.6251 13.6537 20.6251Z" fill="#111111"/>
</g>
</svg>
