<svg width="40" height="40" viewBox="0 0 40 40" fill="none" xmlns="http://www.w3.org/2000/svg">
<path fill-rule="evenodd" clip-rule="evenodd" d="M20 5.83325C12.1883 5.83325 5.83334 12.1883 5.83334 19.9999C5.83334 27.8116 12.1883 34.1666 20 34.1666C27.8117 34.1666 34.1667 27.8116 34.1667 19.9999C34.1667 12.1883 27.8117 5.83325 20 5.83325ZM20 36.6666C10.81 36.6666 3.33334 29.1899 3.33334 19.9999C3.33334 10.8099 10.81 3.33325 20 3.33325C29.19 3.33325 36.6667 10.8099 36.6667 19.9999C36.6667 29.1899 29.19 36.6666 20 36.6666Z" fill="#111111"/>
<path fill-rule="evenodd" clip-rule="evenodd" d="M25.7187 26.154C25.5003 26.154 25.2803 26.0973 25.0787 25.979L18.7953 22.2307C18.4187 22.004 18.1853 21.5957 18.1853 21.1557V13.0757C18.1853 12.3857 18.7453 11.8257 19.4353 11.8257C20.127 11.8257 20.6853 12.3857 20.6853 13.0757V20.4457L26.3603 23.829C26.952 24.184 27.147 24.9507 26.7937 25.544C26.5587 25.9357 26.1437 26.154 25.7187 26.154Z" fill="#111111"/>
</svg>
