<svg width="40" height="40" viewBox="0 0 40 40" fill="none" xmlns="http://www.w3.org/2000/svg">
<path fill-rule="evenodd" clip-rule="evenodd" d="M36.4813 26.4927H29.7346C26.5729 26.4927 23.9996 23.921 23.9979 20.761C23.9979 17.5977 26.5713 15.0244 29.7346 15.0227H36.4813C37.1713 15.0227 37.7313 15.5827 37.7313 16.2727C37.7313 16.9627 37.1713 17.5227 36.4813 17.5227H29.7346C27.9496 17.5244 26.4979 18.976 26.4979 20.7594C26.4979 22.541 27.9513 23.9927 29.7346 23.9927H36.4813C37.1713 23.9927 37.7313 24.5527 37.7313 25.2427C37.7313 25.9327 37.1713 26.4927 36.4813 26.4927Z" fill="#111111"/>
<path fill-rule="evenodd" clip-rule="evenodd" d="M30.4972 21.906H29.9772C29.2872 21.906 28.7272 21.346 28.7272 20.656C28.7272 19.966 29.2872 19.406 29.9772 19.406H30.4972C31.1872 19.406 31.7472 19.966 31.7472 20.656C31.7472 21.346 31.1872 21.906 30.4972 21.906Z" fill="#111111"/>
<mask id="mask0_40_1041" style="mask-type:luminance" maskUnits="userSpaceOnUse" x="3" y="5" width="35" height="32">
<path fill-rule="evenodd" clip-rule="evenodd" d="M3.33337 5H37.731V36.9548H3.33337V5Z" fill="white"/>
</mask>
<g mask="url(#mask0_40_1041)">
<path fill-rule="evenodd" clip-rule="evenodd" d="M13.3294 7.5C9.1961 7.5 5.83276 10.8633 5.83276 14.9967V26.9583C5.83276 31.0917 9.1961 34.455 13.3294 34.455H27.7361C31.8694 34.455 35.2311 31.0917 35.2311 26.9583V14.9967C35.2311 10.8633 31.8694 7.5 27.7361 7.5H13.3294ZM27.7361 36.955H13.3294C7.81776 36.955 3.33276 32.47 3.33276 26.9583V14.9967C3.33276 9.48333 7.81776 5 13.3294 5H27.7361C33.2478 5 37.7311 9.48333 37.7311 14.9967V26.9583C37.7311 32.47 33.2478 36.955 27.7361 36.955Z" fill="#111111"/>
</g>
<path fill-rule="evenodd" clip-rule="evenodd" d="M21.141 15.0635H12.1427C11.4527 15.0635 10.8927 14.5035 10.8927 13.8135C10.8927 13.1235 11.4527 12.5635 12.1427 12.5635H21.141C21.831 12.5635 22.391 13.1235 22.391 13.8135C22.391 14.5035 21.831 15.0635 21.141 15.0635Z" fill="#111111"/>
</svg>
