<svg width="140" height="39" viewBox="0 0 140 39" fill="none" xmlns="http://www.w3.org/2000/svg">
<path d="M12.2736 38.6044L0 18.93L11.7353 0H37.7197L25.6192 19.2718L35.7724 38.6044H12.2736ZM27.941 34.1715L22.7919 23.6953L16.1495 34.1715H27.941ZM13.0132 30.539L29.2517 4.68102H14.338L5.53297 18.8832L13.0132 30.539Z" fill="#CD8F5C"/>
<path d="M69.2791 32.4114H62.4823L54.0939 20.2782V32.4114H48.1022V6.19767H54.0939V17.5819L62.1078 6.19299H68.9234L60.0856 18.9675L69.2791 32.4114Z" fill="#111111"/>
<path d="M87.7972 32.9357C86.0059 32.9704 84.2261 32.6415 82.5655 31.9689C80.9049 31.2963 79.3979 30.2939 78.1356 29.0224C76.8394 27.7679 75.8174 26.2583 75.1341 24.5889C74.4509 22.9195 74.1213 21.1265 74.1661 19.3233C74.1215 17.5193 74.4512 15.7257 75.1344 14.0556C75.8176 12.3854 76.8395 10.875 78.1356 9.61951C80.72 7.09878 84.1871 5.68788 87.7972 5.68788C91.4074 5.68788 94.8745 7.09878 97.4589 9.61951C98.755 10.875 99.7769 12.3854 100.46 14.0556C101.143 15.7257 101.473 17.5193 101.428 19.3233C101.473 21.1265 101.144 22.9195 100.46 24.5889C99.7771 26.2583 98.7551 27.7679 97.4589 29.0224C96.1966 30.2939 94.6896 31.2963 93.029 31.9689C91.3684 32.6415 89.5886 32.9704 87.7972 32.9357ZM87.7972 27.0938C88.8029 27.1232 89.8038 26.9456 90.7379 26.5719C91.672 26.1983 92.5193 25.6366 93.2272 24.9218C93.9586 24.1853 94.5319 23.3072 94.9118 22.3412C95.2917 21.3753 95.4704 20.342 95.4367 19.3046C95.4704 18.2671 95.2917 17.2338 94.9118 16.2679C94.5319 15.3019 93.9586 14.4238 93.2272 13.6873C92.5193 12.9725 91.672 12.4108 90.7379 12.0372C89.8038 11.6635 88.8029 11.4859 87.7972 11.5153C86.786 11.4857 85.7794 11.6631 84.8392 12.0367C83.899 12.4102 83.0451 12.9719 82.3298 13.6873C81.6038 14.426 81.0366 15.3054 80.663 16.2714C80.2895 17.2374 80.1176 18.2696 80.1578 19.3046C80.1176 20.3395 80.2895 21.3717 80.663 22.3377C81.0366 23.3037 81.6038 24.1831 82.3298 24.9218C83.0451 25.6372 83.899 26.1989 84.8392 26.5725C85.7794 26.946 86.786 27.1234 87.7972 27.0938Z" fill="#111111"/>
<path d="M107.233 26.4571L112.382 23.4613C113.431 25.8954 115.265 27.0937 117.887 27.0937C120.227 27.0937 121.444 26.3822 121.444 24.9592C121.452 24.5805 121.347 24.2081 121.144 23.8885C120.941 23.5688 120.648 23.316 120.302 23.1617C118.947 22.4787 117.513 21.9632 116.033 21.6263C114.111 21.1729 112.301 20.3319 110.716 19.1547C109.18 17.9143 108.319 16.0418 108.319 13.6452C108.277 12.5444 108.488 11.4488 108.936 10.4425C109.384 9.43616 110.057 8.54606 110.903 7.84069C112.645 6.39043 114.853 5.61901 117.119 5.6687C121.426 5.6687 124.796 7.72835 126.706 11.5855L121.65 14.5486C120.714 12.5592 119.404 11.5106 117.119 11.5106C115.322 11.5106 114.311 12.4094 114.311 13.4954C114.319 13.8274 114.405 14.1529 114.561 14.4462C114.717 14.7394 114.939 14.9924 115.209 15.1852C115.833 15.672 117.107 16.1948 119.029 16.7534L121.463 17.5444C122.217 17.8139 122.944 18.1524 123.635 18.5556C124.398 18.9052 125.085 19.4014 125.657 20.016C126.837 21.3612 127.477 23.0953 127.455 24.8843C127.502 26.013 127.282 27.1369 126.814 28.1649C126.345 29.1929 125.641 30.096 124.759 30.8011C122.961 32.2054 120.602 32.9356 117.737 32.9356C112.345 32.9356 108.731 30.4641 107.233 26.4571Z" fill="#111111"/>
<path d="M134.008 10.5001L140 6.19299V32.4067H134.008V10.5001Z" fill="#111111"/>
</svg>
